<svg xmlns="http://www.w3.org/2000/svg" preserveAspectRatio="none" style="display:block" viewBox="0 0 1024 1024"><defs><linearGradient id="F" x1="511.2" x2="511.6" y1="686" y2="631.4" gradientUnits="userSpaceOnUse"><stop class="stop0" offset="0" stop-color="#915e3d"/><stop class="stop1" offset="1" stop-color="#b8866c"/></linearGradient><linearGradient id="E" x1="583.1" x2="576.3" y1="753.9" y2="741.4" gradientUnits="userSpaceOnUse"><stop class="stop0" offset="0" stop-color="#534744"/><stop class="stop1" offset="1" stop-color="#746a63"/></linearGradient><linearGradient id="D" x1="512.2" x2="510.2" y1="728.1" y2="785.6" gradientUnits="userSpaceOnUse"><stop class="stop0" offset="0" stop-color="#bc8d71"/><stop class="stop1" offset="1" stop-color="#dfb09a"/></linearGradient><linearGradient id="C" x1="691.3" x2="584.8" y1="513" y2="589.5" gradientUnits="userSpaceOnUse"><stop class="stop0" offset="0" stop-color="#5e4740"/><stop class="stop1" offset="1" stop-color="#7d6f65"/></linearGradient><linearGradient id="B" x1="379.3" x2="367.4" y1="468.8" y2="527.8" gradientUnits="userSpaceOnUse"><stop class="stop0" offset="0" stop-color="#3e332f"/><stop class="stop1" offset="1" stop-color="#574a3e"/></linearGradient><linearGradient id="A" x1="375.4" x2="378" y1="476.5" y2="521.8" gradientUnits="userSpaceOnUse"><stop class="stop0" offset="0" stop-color="#62717b"/><stop class="stop1" offset="1" stop-color="#889daa"/></linearGradient><linearGradient id="z" x1="330.6" x2="357.9" y1="507.4" y2="526" gradientUnits="userSpaceOnUse"><stop class="stop0" offset="0" stop-color="#556974"/><stop class="stop1" offset="1" stop-color="#79848f"/></linearGradient><linearGradient id="y" x1="336.5" x2="379.1" y1="511.8" y2="534.5" gradientUnits="userSpaceOnUse"><stop class="stop0" offset="0" stop-color="#73868d"/><stop class="stop1" offset="1" stop-color="#9eaeb6"/></linearGradient><linearGradient id="x" x1="374.7" x2="377.2" y1="489.9" y2="538.3" gradientUnits="userSpaceOnUse"><stop class="stop0" offset="0" stop-color="#1b1a19"/><stop class="stop1" offset="1" stop-color="#4a4a4a"/></linearGradient><linearGradient id="w" x1="278.9" x2="361.3" y1="432.8" y2="565.2" gradientUnits="userSpaceOnUse"><stop class="stop0" offset="0" stop-color="#726257"/><stop class="stop1" offset="1" stop-color="#90877d"/></linearGradient><linearGradient id="v" x1="405.8" x2="300.9" y1="431.1" y2="598.8" gradientUnits="userSpaceOnUse"><stop class="stop0" offset="0" stop-color="#b29079"/><stop class="stop1" offset="1" stop-color="#e0c5b1"/></linearGradient><linearGradient id="u" x1="729.3" x2="679.4" y1="424.7" y2="578.7" gradientUnits="userSpaceOnUse"><stop class="stop0" offset="0" stop-color="#746556"/><stop class="stop1" offset="1" stop-color="#8e837c"/></linearGradient><linearGradient id="t" x1="657" x2="666.4" y1="528.3" y2="545.8" gradientUnits="userSpaceOnUse"><stop class="stop0" offset="0" stop-color="#88a0ac"/><stop class="stop1" offset="1" stop-color="#b2ced2"/></linearGradient><linearGradient id="s" x1="644.8" x2="650.4" y1="490" y2="538.4" gradientUnits="userSpaceOnUse"><stop class="stop0" offset="0" stop-color="#1c1b1c"/><stop class="stop1" offset="1" stop-color="#4b4c4b"/></linearGradient><linearGradient id="r" x1="626.5" x2="656.3" y1="479" y2="534.6" gradientUnits="userSpaceOnUse"><stop class="stop0" offset="0" stop-color="#5f7079"/><stop class="stop1" offset="1" stop-color="#899ea7"/></linearGradient><linearGradient id="q" x1="713.7" x2="627.8" y1="495.9" y2="611" gradientUnits="userSpaceOnUse"><stop class="stop0" offset="0" stop-color="#d8bea9"/><stop class="stop1" offset="1" stop-color="#f8e4d0"/></linearGradient><linearGradient id="p" x1="562.4" x2="763.4" y1="515.3" y2="466.2" gradientUnits="userSpaceOnUse"><stop class="stop0" offset="0" stop-color="#ae8a75"/><stop class="stop1" offset="1" stop-color="#c8ac94"/></linearGradient><linearGradient id="o" x1="834.5" x2="811.8" y1="516.8" y2="505.3" gradientUnits="userSpaceOnUse"><stop class="stop0" offset="0" stop-color="#d7b398"/><stop class="stop1" offset="1" stop-color="#f9d8bd"/></linearGradient><linearGradient id="n" x1="807.8" x2="846.6" y1="582.8" y2="596.7" gradientUnits="userSpaceOnUse"><stop class="stop0" offset="0" stop-color="#c1987e"/><stop class="stop1" offset="1" stop-color="#eac6ab"/></linearGradient><linearGradient id="m" x1="262.5" x2="183.7" y1="357.7" y2="328.8" gradientUnits="userSpaceOnUse"><stop class="stop0" offset="0" stop-color="#754f14"/><stop class="stop1" offset="1" stop-color="#9c7944"/></linearGradient><linearGradient id="l" x1="862.8" x2="712.9" y1="389.7" y2="310.2" gradientUnits="userSpaceOnUse"><stop class="stop0" offset="0" stop-color="#6b4812"/><stop class="stop1" offset="1" stop-color="#b58b51"/></linearGradient><linearGradient id="k" x1="801.7" x2="711.2" y1="351.6" y2="344.7" gradientUnits="userSpaceOnUse"><stop class="stop0" offset="0" stop-color="#b78d6f"/><stop class="stop1" offset="1" stop-color="#e2c1a2"/></linearGradient><linearGradient id="j" x1="450" x2="427.9" y1="144.5" y2="153.2" gradientUnits="userSpaceOnUse"><stop class="stop0" offset="0" stop-color="#744f1e"/><stop class="stop1" offset="1" stop-color="#8f6c34"/></linearGradient><linearGradient id="i" x1="457.5" x2="452.9" y1="153.3" y2="65.7" gradientUnits="userSpaceOnUse"><stop class="stop0" offset="0" stop-color="#c09d66"/><stop class="stop1" offset="1" stop-color="#debb86"/></linearGradient><linearGradient id="h" x1="545.8" x2="553.1" y1="184.9" y2="151.2" gradientUnits="userSpaceOnUse"><stop class="stop0" offset="0" stop-color="#866330"/><stop class="stop1" offset="1" stop-color="#b68a56"/></linearGradient><linearGradient id="g" x1="621.7" x2="606.9" y1="175.1" y2="78.9" gradientUnits="userSpaceOnUse"><stop class="stop0" offset="0" stop-color="#b68f5c"/><stop class="stop1" offset="1" stop-color="#e5c58f"/></linearGradient><linearGradient id="f" x1="336.6" x2="337.4" y1="206.6" y2="221.6" gradientUnits="userSpaceOnUse"><stop class="stop0" offset="0" stop-color="#a66d4c"/><stop class="stop1" offset="1" stop-color="#b9875e"/></linearGradient><linearGradient id="e" x1="530.1" x2="463.4" y1="142.7" y2="69" gradientUnits="userSpaceOnUse"><stop class="stop0" offset="0" stop-color="#9c733e"/><stop class="stop1" offset="1" stop-color="#c4a36d"/></linearGradient><linearGradient id="d" x1="361.2" x2="369" y1="175.4" y2="143.7" gradientUnits="userSpaceOnUse"><stop class="stop0" offset="0" stop-color="#826129"/><stop class="stop1" offset="1" stop-color="#a27f4a"/></linearGradient><linearGradient id="c" x1="465.8" x2="507.9" y1="315.4" y2="126.7" gradientUnits="userSpaceOnUse"><stop class="stop0" offset="0" stop-color="#522100"/><stop class="stop1" offset="1" stop-color="#826123"/></linearGradient><linearGradient id="b" x1="505.5" x2="505.5" y1="239" y2="44" gradientUnits="userSpaceOnUse"><stop class="stop0" offset="0" stop-color="#8e6b36"/><stop class="stop1" offset="1" stop-color="#b28d56"/></linearGradient><linearGradient id="a" x1="370.8" x2="592" y1="543.7" y2="156.7" gradientUnits="userSpaceOnUse"><stop class="stop0" offset="0" stop-color="#d4b196"/><stop class="stop1" offset="1" stop-color="#fbdfc3"/></linearGradient></defs><path fill="#e1bfa4" d="M233.2 197.7c3.3-17.5 20.3-48.6 30.3-61.6 25.1-32.7 56.7-44.4 93.7-57.3 12.5-4.4 28.7-21.1 45.5-23.6 9.5-3.8 25.2-.6 33.8-2.6 93.3-21.2 200-10.8 277.6 49.6 23 18 56.7 45.2 61 80.9 2.2 7.5 4 23.4 7.6 28.7 43.1 54.8 42.7 102.6 40 169.2-1.1 29.6 1.3 70.3-8 98.3-1 4.2-3.2 11.8-2.6 15.7 13.1-11.4 22.8-10.7 34.5 2 14 20.5 6.4 56.5 2.5 79.5-3.2 18.6-17 80-28.5 92.3-8.3 13.8-20 15-34.8 13.7-27.4 114-81.4 164.1-178 224.6C562.6 935.3 512 936 461 925.9c-39.7-8.3-116.9-66-145.6-95.3a288 288 0 0 1-40.6-52.2 294 294 0 0 1-35.7-95c-9.6-.2-19.6.2-28-5.3-23.8-23.3-36.6-100.4-41.1-134.2-1.2-15.5-2.2-36.5 8.8-48.8 10.6-12 21.9-10.6 33.1-.5 1.2-3-1-8.6-1.8-12.6-3.5-5.1-8-48-8.2-56.1-.6-49-6.6-172.7 26.4-211z"/><path fill="url(#a)" d="M233.2 197.7c3.3-17.5 20.3-48.6 30.3-61.6 25.1-32.7 56.7-44.4 93.7-57.3 12.5-4.4 28.7-21.1 45.5-23.6 9.5-3.8 25.2-.6 33.8-2.6 93.3-21.2 200-10.8 277.6 49.6 23 18 56.7 45.2 61 80.9 2.2 7.5 4 23.4 7.6 28.7 43.1 54.8 42.7 102.6 40 169.2-1.1 29.6 1.3 70.3-8 98.3-1 4.2-3.2 11.8-2.6 15.7 0 4.5-2.4 7.1-2.9 12.5-1.3-3.1-9.9-6.3-13.2-7.6 1.3-4.4 6.8-6 10.7-7.7.6-7.7.6-12.9.4-20.6-7.3-9.8-9.2-11.2-11-23.1q.1 10.3-.4 20.7c-7.9-1.7-12-2.1-20.2-2.7-2.6-2.8-8-12.4-12.9-18-7.2-8.1-17.3-14.3-23-20.8-19.7-6.2-54-21-74.4-11-20.6-3.5-31.8 3.8-51 7.8-7 1.4-19.7 1-26.4 2.2 3.8 2.5 5 2 9.2.6l2.5.7c-2.1 2.8-9.5 5.1-12.8 7.7a110 110 0 0 0-24.5 29c-4.4 7.4-4.5 3.4-11.1 6-5-3.3-16.3-5.2-22.3-6.4a54 54 0 0 0-34 0c-11.5 2-17 5.9-27 7.8-3.6-1-8.6-8.3-10.8-11.5a108 108 0 0 0-25-26.1c.6 3.9 1.4 4.2-1.2 7.6l-2.7 1.2a115 115 0 0 0-51.4-19.4l3-3.2c-7.3-1.1-13-1.8-20-4-14.6-7.3-42.7.6-57.5 5-5.3 1.5-13 5.2-18 5.7-2.2 4.2-19 16.4-25 23.3-4.8 8.4-8.2 15.9-18.4 18.2-11.6 2.6-14.2-2.8-13.8-12.2-4 6.2-7.2 11-10.7 17.6-1.3 4.8-1.2 12.4-2.2 13.1-1-1.2-3.1-4.5-4-5.4-3.5-5.1-8-48-8.2-56.1-.6-49-6.6-172.7 26.4-211z"/><path fill="url(#b)" d="M233.2 197.7c3.3-17.5 20.3-48.6 30.3-61.6 25.1-32.7 56.7-44.4 93.7-57.3 12.5-4.4 28.7-21.1 45.5-23.6 9.5-3.8 25.2-.6 33.8-2.6 93.3-21.2 200-10.8 277.6 49.6 23 18 56.7 45.2 61 80.9 2.2 7.5 4 23.4 7.6 28.7-5 4-32 30-35 34.8a98 98 0 0 0-20.8-19.8c-16.5-.8-34.2-14.3-52.9-15.2-13-4.4-27-3.8-40.6-3.6-24.6 2.6-48.9 7.8-73.6 10.5a539 539 0 0 1-89.3.5c-15.8-3.9-37.2-4.8-54.3-9.3-8 3.5-9 .4-16.3-.4-10-1-30.9-1.4-40 1.7-28.6 2.5-43.4 10.6-68.1 23.8-5.3 2.8-5.4 6.4-10.5 7l-2.5 2.4c-9.9 3-15.2 22.4-19.3 25.3l-1-.5c1-5.3 5.2-9 5.4-12 1.8-1.8 4.9-7.4 6.4-9.9 6-4.5 14.6-20.7 21.4-28.3-16-2.2-31.2-7-47.6-4.3-7 1.1-9.7 4.7-15.8.3z"/><path fill="url(#c)" d="M468.7 71.8c-.2-2.5-.8-4-1-7.6 5.2-3.1 39-4.8 44.2-2.6-4.6.1-20.9-.1-24.2 2-.2 3 1 4.5 3.8 6.3 11.7 8.2 18 33.1 26 42.8 6.7 27.5 10.4 39 5.7 67.8.2 4.7-.5 5.5 1.7 9 6 1.4 11.6-5.5 15.5-9.8v5.2c2.7-1.3 5.3-3 8.1-2 2 2.2 2.1 2.7 2.7 5.7-2.3 2.6-2.9 2.7-2.4 5.9 7.6 5.6 31-5 41-7 25.7-5.4 55-15.8 81.4-8.8 14.4 3.8 26 8.1 41 8.6 16.2.4 25.3-7.3 41-6.8a108 108 0 0 1-3 24.6l-3.6 12.2c-.3 1.2 3 6.8 2 10.2-1.2-2.4-2-4-3.4-6.2-10.4 3-7.7 12.8-.5 19 7.3.6 30.2-23.3 33.3-30 2.6-5.6-6.4-20-3-27.2 2.3 7.5 4.1 23.4 7.7 28.7-5 4-32 30-35 34.8a98 98 0 0 0-20.8-19.8c-16.5-.8-34.2-14.3-52.9-15.2-13-4.4-27-3.8-40.6-3.6-24.6 2.6-48.9 7.8-73.6 10.5a539 539 0 0 1-89.3.5c-15.8-3.9-37.2-4.8-54.3-9.3-8 3.5-9 .4-16.3-.4-10-1-30.9-1.4-40 1.7-28.6 2.5-43.4 10.6-68.1 23.8-5.3 2.8-5.4 6.4-10.5 7l-2.5 2.4c-9.9 3-15.2 22.4-19.3 25.3l-1-.5c1-5.3 5.2-9 5.4-12 1.8-1.8 4.9-7.4 6.4-9.9 6-4.5 14.6-20.7 21.4-28.3-16-2.2-31.2-7-47.6-4.3-7 1.1-9.7 4.7-15.8.3l5-17c.5 2.5 0 5.6-.2 8.3l.9.3c2.2-2.6 4.5-8.5 5.8-12a59 59 0 0 1 24.3-29.7c8.8-7.3 20.2-15.4 27.7-23.4 36.6-9.7 69.6-4.6 103.5 11.2 6.8 3.1 23.8 9 28.6 13.9a80 80 0 0 0 17 12c3.7 2 7.2 4.6 11 4.3l1.2-1.9 5.8.4c2.6 3.8 4.2 5.5 7.4 8.9h.8l1.7 2.3c8.3 1.2 34.9 6 42.1 4.6l2.3-1.8c-2.4-4.8-.1-3.8.4-10.5v-.8c-3.8-4.4-4.9-13.3-5.3-18.9-.5-2.9-.5-3.5-2-6.2-2.7-22-8.2-50-21.3-67.9-5-6.7-11.5-12.5-16.3-19.1"/><path fill="url(#d)" d="M291.8 141.3c36.6-9.7 69.6-4.6 103.5 11.2 6.8 3.1 23.8 9 28.6 13.9a80 80 0 0 0 17 12c3.7 2 7.2 4.6 11 4.3l1.2-1.9 5.8.4c2.6 3.8 4.2 5.5 7.4 8.9l.2.7c1.5 3.3 2.1 4.1 2 7.8-2 2.6-3 1.8-7 3 4.2 6.2 5.7 2.2 12.3 5-5.4 2.3-22-1.4-25.6-5l2-.5 2.5 1.8c3.2-1.6 5-2.2 5.7-5.7-3.7-7.6-59.6-24-72-28-29.3-9.4-57.1-27.6-88.6-18.2.2.2 66.1 6.3 77.2 16 7 6 39 18 49.8 24.5l.1.7c-14.9-4.4-24.8-11-38.5-18a179 179 0 0 0-86.4-20.9c-17.4.5-23.2 10.5-35.4 11.4h-.5c8.8-7.3 20.2-15.4 27.7-23.4"/><path fill="#9e714a" d="M440.9 178.4c3.7 2 7.2 4.6 11 4.3l1.2-1.9 5.8.4c2.6 3.8 4.2 5.5 7.4 8.9l.2.7c-.1 2.6 0 2.7-1.2 5h-2c-6-3.2-18.6-12-22.4-17.4"/><path fill="url(#e)" d="M468.7 71.8c-.2-2.5-.8-4-1-7.6 5.2-3.1 39-4.8 44.2-2.6-4.6.1-20.9-.1-24.2 2-.2 3 1 4.5 3.8 6.3 11.7 8.2 18 33.1 26 42.8 6.7 27.5 10.4 39 5.7 67.8.2 4.7-.5 5.5 1.7 9 6 1.4 11.6-5.5 15.5-9.8v5.2a97 97 0 0 1-18.6 12c-2.4-4.6 1.6-18-3-26.4-2.1-3.9-1.2-20.9-4.2-26.3l-2-1.3c-6.8 4.6 11.1 42.8.6 52.3-2.4-4.8-.1-3.8.4-10.5v-.8c-3.8-4.4-4.9-13.3-5.3-18.9-.5-2.9-.5-3.5-2-6.2-2.7-22-8.2-50-21.3-67.9-5-6.7-11.5-12.5-16.3-19.1"/><path fill="#906836" d="M508.3 143.7c-1.4-9.8-4.6-27.3-3.8-36.6 11.4 20.5 15.3 50.5 18.7 73.4.2 4.7-.5 5.5 1.7 9 6 1.4 11.6-5.5 15.5-9.8v5.2a97 97 0 0 1-18.6 12c-2.4-4.6 1.6-18-3-26.4-2.1-3.9-1.2-20.9-4.2-26.3l-2-1.3c-6.8 4.6 11.1 42.8.6 52.3-2.4-4.8-.1-3.8.4-10.5v-.8c-3.8-4.4-4.9-13.3-5.3-18.9.3-7.2.1-14 0-21.3"/><path fill="#9e714a" d="M508.3 143.7c3 14.4 6.3 25.6 5.3 40.2-3.8-4.4-4.9-13.3-5.3-18.9.3-7.2.1-14 0-21.3"/><path fill="url(#f)" d="M281.3 241.9c9.8-13.7 34.5-28.7 50.5-33.4 25.5-7.6 58.3-3.9 84.4 1.2-8 3.5-9 .4-16.3-.4-10-1-30.9-1.4-40 1.7-28.6 2.5-43.4 10.6-68.1 23.8-5.3 2.8-5.4 6.4-10.5 7"/><path fill="#9e714a" d="M633.4 208c31.2-8 68.5-2.3 93.5 18.8-16.5-.8-34.2-14.3-52.9-15.2-13-4.4-27-3.8-40.6-3.6"/><path fill="url(#g)" d="M512 61.6c9 3.2 6 .7 14.1-.7q10.5-2 21-2c20-.2 82.7 9.9 98.5 21.6 22.6 9.2 52.8 26 69.2 44.3-2.8 21.2-23.2 23.3-40.4 17.5-32 14.6-52.1 17.8-87.7 15.6-10.3-.7-13.9 4.6-26.1-.4-5 9.1-6.6 28.4-9.4 31-.6-2.9-.6-3.4-2.7-5.6-2.8-1-5.4.7-8.1 2v-5.2c-4 4.3-9.5 11.2-15.5 9.8-2.2-3.5-1.5-4.3-1.7-9 4.7-28.7 1-40.3-5.7-67.8-8-9.7-14.3-34.6-26-42.8-2.7-1.8-4-3.3-3.8-6.4 3.3-2 19.6-1.8 24.2-1.9"/><path fill="#d5b186" d="M512 61.6c9 3.2 6 .7 14.1-.7q10.5-2 21-2c20-.2 82.7 9.9 98.5 21.6-5.6 1-18.2-8.5-23.5-2.6 4.8 8 32.3 27.1 33 35.4-4 7.2-16.4 10.8-22.8 6a85 85 0 0 0-11.3-7c-20.7-2.2-41.9-2-62.5.2-6 .6-2.8 9.4-5.2 13.6l-1.9-1.6c-28.9 21.6-22.6-14.5-35.3-18.8 1.1 3.2 2 4 1.4 7-8-9.7-14.3-34.6-26-42.8-2.7-1.8-4-3.3-3.8-6.4 3.3-2 19.6-1.8 24.2-1.9"/><path fill="url(#h)" d="M559.6 143.7c.5 4 .7 9.7 1 13.8-5 9.1-6.6 28.4-9.4 31-.6-2.9-.6-3.4-2.7-5.6-2.8-1-5.4.7-8.1 2v-5.2c5.3-7.9 13-25.8 19.2-36"/><path fill="#d5b186" d="M369.2 94.3c6.3.3 20.2 3.7 23.4 8 11.2 15.2 22.5 32 33.5 47.1 8 11.2 18.3 19 25 32-9.3-4.9-17.7-12.4-27.2-15-4.8-4.9-21.8-10.8-28.6-13.9-34-15.8-67-20.9-103.5-11.2-10 .3-9-.8-13.7 7.6-2.2 1-3.9 2.2-6.2 2-.3-5.5 5.4-8.1 8.9-12 24.7-27.7 52.6-38.8 88.4-44.6"/><path fill="url(#i)" d="m506.4 158.8-1.2.2-1.5-10c-4.5 5.6-27.2 2.4-33.5 2.1l-1.5 2.7c-1.6-2.2-5.1-14-6.5-17.4-9.4-23.6-23-49.5-46.5-61.8-2.7-1.5-7.8-3.5-9.4-6 3-1.4 43.4-3.6 49.6-4l12.8 7.2c4.8 6.6 11.4 12.4 16.3 19.1 13.1 17.8 18.6 46 21.4 68"/><path fill="#a98551" d="M382.8 89.5c2.4-2.8 5-4.7 7.8-7 8.5-6.5 12.6-8.3 21-.7 1 5 1 18.2-1 22.7-4.2 1.1-3.8-2.6-6.7-1-.3 2.8 3.2 8.6 5.5 9.7 1.6 2.1 5.4 6.7 7.7 7.9 4.5 9.8 10.1 16.2 15.6 25.2 6.9 11.2 13 23.6 20.4 34.5l-1.2 2c-3.8.2-7.3-2.4-11-4.4a80 80 0 0 1-17-12c9.5 2.6 18 10.1 27.1 15-6.6-13-16.9-20.8-24.9-32-11-15.2-22.3-32-33.5-47-3.2-4.4-17.1-7.8-23.4-8 4.2-2.2 9 1 13.6-4.9"/><path fill="#c8a084" d="M382.8 89.5c2.4-2.8 5-4.7 7.8-7 8.5-6.5 12.6-8.3 21-.7a290 290 0 0 0-2.2 21.7c-7.8-3.6-22.8-8-26.6-14"/><path fill="url(#j)" d="m409.4 113.2.3-3.6 1.3-1.1c15.8 1.3 60.6 66.4 56.1 81.5h-.8c-3.2-3.3-4.8-5-7.4-8.8l-5.8-.4c-7.5-10.9-13.5-23.3-20.4-34.5-5.5-9-11.1-15.4-15.6-25.2a37 37 0 0 1-7.7-7.9"/><path fill="#906836" d="M417.1 121c16 12.5 35 41.2 41.8 60.2l-5.8-.4c-7.5-10.9-13.5-23.3-20.4-34.5-5.5-9-11.1-15.4-15.6-25.2"/><path fill="url(#k)" d="M674 211.6c18.7 1 36.4 14.4 53 15.2 9.5 7 13 10.7 20.7 19.8 3-4.7 30-30.8 35-34.8 43.1 54.8 42.7 102.6 40 169.2-1.1 29.6 1.3 70.3-8 98.3-1 4.2-3.2 11.8-2.6 15.7 0 4.5-2.4 7.1-2.9 12.5-1.3-3.1-9.9-6.3-13.2-7.6 1.3-4.4 6.8-6 10.7-7.7.6-7.7.6-12.9.4-20.6-7.3-9.8-9.2-11.2-11-23.1q.1 10.3-.4 20.7c-7.9-1.7-12-2.1-20.2-2.7-2.6-2.8-8-12.4-12.9-18-7.2-8.1-17.3-14.3-23-20.8-1.8-14-30.8-20.6-41.4-27.2 3.2-1 12.2 3.4 15.8 4.9 6.3-5.7 17-160.7 4.2-176.1-5-6-42.1-14.6-44.2-17.7"/><path fill="url(#l)" d="M782.7 211.8c43.1 54.8 42.7 102.6 40 169.2-1.1 29.6 1.3 70.3-8 98.3-1 4.2-3.2 11.8-2.6 15.7 0 4.5-2.4 7.1-2.9 12.5-1.3-3.1-9.9-6.3-13.2-7.6 1.3-4.4 6.8-6 10.7-7.7.6-7.7.6-12.9.4-20.6-7.3-9.8-9.2-11.2-11-23.1l-7-49.9c-2.2-6.5-4.5-26.4-5.4-34q-3-26-6.8-52c-8.2-33.4-12.1-38.6-29.2-66 3-4.7 30-30.8 35-34.8"/><path fill="#a98551" d="M776.9 312.6c4.3 5.8 6.7 33.4 7.9 42.5 2-10.6-4.8-40.2-5-53.2 0-9.6-10.1-32.3-12.7-42.4-.6-1.8-6.4-5.3-7.9-9l.6-1.2c4.7-.3 9.6 9 17.3 9.2 1.3 0 24 12.6 24 13.3 4.2 17.4-5.7 41.2-8 58.6-.7 4.7.2 6.9-.2 11.4-.7 5 1.7 26.7.5 30-1.8-3.7-1-9-1.8-13.4-2 1.6-4 3.9-6 4-.4 12 4.6 21.8 3.4 36.2-2.1-6.5-4.4-26.4-5.3-34q-3-26-6.8-52"/><path fill="#7d523c" d="M807 471.6c5.3 12.2.3 17.5 1.3 21 2.7-4.5 3.3-7.7 4.7-12.8l1.8-.5c-1 4.2-3.3 11.8-2.7 15.7 0 4.5-2.4 7.1-2.9 12.5-1.3-3.1-9.9-6.3-13.2-7.6 1.3-4.4 6.8-6 10.7-7.7.6-7.7.6-12.9.4-20.6"/><path fill="#c8a084" d="M768.1 236.3c11.8 0 30.7 13.8 31.8 25l-1.1.7-2.6-1.9c-4.6-4-9.6-6.3-14.7-9.2-4.1-2.3-19.7-6.3-21.2-8.4 1-3.3 4.8-5.2 7.8-6.2"/><path fill="url(#m)" d="M228.3 214.8c6.1 4.4 8.9.8 15.8-.3 16.4-2.6 31.7 2.1 47.6 4.3-6.8 7.6-15.3 23.8-21.4 28.3-1.5 2.5-4.6 8.1-6.4 10-3.6 1.4-7 8.9-8.5 12.7-9 22.2-13.9 44.5-16.7 68.3-1.2 10.5-2.3 24.6-4.8 34.4-.6 2-1.1 36.3-.9 40-1.4 9.7-5.9 35.7-6 44.2-4 6.2-7.2 11-10.7 17.6-1.3 4.8-1.2 12.4-2.2 13.1-1-1.2-3.1-4.5-4-5.4-3.5-5.1-8-48-8.2-56.1-.6-49-6.6-172.7 26.4-211"/><path fill="#a98551" d="m233.9 372.5-3.2-4c-1.5 1.4-1.3 6.8-1.6 9.4l-.6.4c-1.9-12.6.3-17.6 1-29 .2-3.8-2-20.5-2.5-25.3-1.7-14.2-.5-29.5-4.8-42.7-2-6-3.8-17.3 0-22.4 10.1-13.5 40.5-20 55.3-23.8-3.2 4.5-5 6.8-7.2 12-1.5 2.5-4.6 8.1-6.4 10-3.6 1.4-7 8.9-8.5 12.7-9 22.2-13.9 44.5-16.7 68.3-1.2 10.5-2.3 24.6-4.8 34.4m50.4 54.9a14 14 0 0 1 4.8-7.3c34-27.7 81.6-26.6 122.6-20.6 11.5 1.6 46.1 13.9 23.3 26.7l-.8.4c-3.9 1.7-5.3 1.7-9.5 2 1.1.8 6.6 5 7.3 5.9.6 3.9 1.4 4.2-1.2 7.6l-2.7 1.2a115 115 0 0 0-51.4-19.4l3-3.2c-7.3-1.1-13-1.8-20-4-14.6-7.3-42.7.6-57.5 5-5.3 1.5-13 5.2-18 5.7"/><path fill="#a29a91" d="M359.6 416.7c11.8-4.8 40.3 5.4 52 7.7 7 1.4 16.2 1.7 23.4 1.8l-.8.4c-3.9 1.7-5.3 1.7-9.5 2 1.1.8 6.6 5 7.3 5.9.6 3.9 1.4 4.2-1.2 7.6l-2.7 1.2a115 115 0 0 0-51.4-19.4l3-3.2c-7.3-1.1-13-1.8-20-4"/><path fill="#4b413b" d="M379.8 420.7c15.2 2.7 39.5 10.9 51 21.4l-2.7 1.2a115 115 0 0 0-51.4-19.4z"/><path fill="#a98551" d="M587.8 426.7c-16.4-9.8 5.3-23.4 16.5-25.5 31-6 63-7.7 94-.7 10.5 6.6 39.5 13.1 41.4 27.2-19.8-6.2-54.2-21-74.5-11-20.6-3.5-31.8 3.8-51 7.8-7 1.4-19.7 1-26.4 2.2"/><path fill="#9e714a" d="M263.9 257c-.2 3-4.4 6.7-5.3 12l1 .5c4-3 9.3-22.2 19.2-25.3-11.3 15.2-26 41.4-28.5 60.4-9.3 23-10.2 81.7-17.3 108-.2-3.8.3-38.1.9-40 2.5-10 3.6-24 4.8-34.5 2.8-23.8 7.7-46.1 16.7-68.3 1.6-3.8 4.9-11.3 8.5-12.7"/><path fill="#b08468" d="M233 412.6c7.1-26.3 8-85 17.3-108 1.6 5-2.8 21.4-3.6 27.6-4.6 37.4-11.4 74.9-15.7 112.2-.8 7.6-.4 25.8 10.8 22.7 8.8-2.4 12.6-16.8 17.4-16.4-4.8 8.4-8.2 15.9-18.4 18.2-11.6 2.6-14.2-2.8-13.8-12.2.1-8.5 4.6-34.5 6-44.1"/><path fill="#c8a084" d="M359.8 211c9.2-3 30.1-2.8 40-1.7 7.5.8 8.5 3.9 16.4.4 17 4.5 38.5 5.4 54.3 9.3-25 2-51.2-3.2-75.8-6.6-10.8-1.5-23.8-1.4-34.9-1.4"/><path fill="#f2dbc4" d="M506 257.5c7.2.3 26.7-1 30.8 1.7 35.4 22.6 30.7 55.5-5 68.8-49.3 13.2-88.1-34-37.7-62.7 4.2-2.4 7.1-5.6 11.9-7.8"/><path fill="#b08468" d="M211.1 678.1c-23.8-23.3-36.6-100.4-41.1-134.2-1.2-15.5-2.2-36.5 8.8-48.8 10.6-12 21.9-10.6 33.1-.5l3.3 11.4c4-.7 3.8-5 13.8-6 3.4-.2 7-.8 10 .6 1.3 2.7 3.7 28.9 5 34.9 1.4 6.5 3.3 16.7 6 22.4 1.7 4.1 9.5 16 9.5 16-.3 1.9-.4 4.8-1.6 6-6.3 5.3-2.1 27.6-1.6 35 3.4 42 11.2 79.1 36.1 113.8 9.2 12.7 17 32.7 26.6 46.4a470 470 0 0 0 74.3 85.7c28.4 25.8 47.2 49.9 90 50.6 28.3.9 74 2.3 100.3-10 23-10.7 53.3-45 71.8-62.7a715 715 0 0 0 52.6-57c20.2-31.2 41-68 52.2-103.5 6.5-20.7 7.1-51.4 10.7-72.9 1-5.5 1.3-14.1-4-17.1l-.1-5.5c-1.9 4.5-1.4 11.4-3.7 14 .3-3.3 2.3-16.5 1.3-18.4-4.2 5.5-2.6 4.6-8 9.8l-2.3.2c.3-.9 8.7-12 10.1-13.8 7.6-9.9 10.8-20.4 14.7-32.1 1-5.3 1.9-9.2 2.4-14.7 6.2-10.5-7.3-29.8 14.7-27.8 3.3 1.3 11.9 4.5 13.2 7.6.5-5.4 2.9-8 3-12.5 13-11.4 22.7-10.7 34.4 2 14 20.5 6.4 56.5 2.5 79.5-3.2 18.6-17 80-28.5 92.3-8.3 13.8-20 15-34.8 13.7-27.4 114-81.4 164.1-178 224.6C562.6 935.3 512 936 461 925.9c-39.7-8.3-116.9-66-145.6-95.3a288 288 0 0 1-40.6-52.2 294 294 0 0 1-35.7-95c-9.6-.2-19.6.2-28-5.3"/><path fill="#d5b186" d="M211.1 678.1c-23.8-23.3-36.6-100.4-41.1-134.2-1.2-15.5-2.2-36.5 8.8-48.8 10.6-12 21.9-10.6 33.1-.5l3.3 11.4v6c.4 2.4.9 5.3 1 7.7-.2 11.1-.3 20.6-1.6 31.7-7.8-13.8-13.4-25.5-25.6-35.7-4.9-2.8-7-3.3-12.5-2.1-1.8 5.6-4.4 14.7 4.6 20.4 1.3.8 1.8-.2 3.9 1.2l3.2-.8c10.4 10 10.8 13.3 14.7 26.8.4 1.1 1.3 4.2 2.5 4.4-.2-2.3-1.6-10.6-.9-12a92 92 0 0 1 11.5 46.2c0 1.5-.1 1.1.1 2.7l-.7 1.3-4.3-6.2c2.8 17.3 25 58.7 19.4 73.1-6.3 7.5-12.7 1.7-19.4 7.4"/><path fill="#d0a98c" d="M176.5 513.6c1.5-1.6 4.5-3.7 6.3-5l-.1-1.5-4.2-1.7-.2-1.5 1.2-.6c6 1.3 18 12.3 23.1 16.7 1 1.5 1 4.1 1.6 5 2.2 2.9 7.3 11 10.2 12.2 1.8-3.1 1-20.5.8-25.2.4 2.4.9 5.3 1 7.7-.2 11.1-.3 20.6-1.6 31.7-7.8-13.8-13.4-25.5-25.6-35.7-4.9-2.8-7-3.3-12.5-2.1"/><path fill="url(#n)" d="M846.6 497c14 20.5 6.4 56.5 2.5 79.5-3.2 18.6-17 80-28.5 92.3-1.5.8-5 3.5-6.4 3.7-6 .8-18.2 7.5-21.9.1-.2-20.5 11.5-57.1 16.2-78 1.6-7.3 3.2-19.1 5.3-25.6q5-15.5 13.8-29c6.2-5.3 21.6-12.6 22.2-21.2-3.7-6.1-13.1-2.9-18.2-.5 4.2-4.2 8.8-8.4 12.3-13.1 2.6-3 2-3.7 2.7-8.2"/><path fill="url(#o)" d="M812.1 495c13.1-11.4 22.8-10.7 34.5 2-.8 4.5-.1 5.1-2.7 8.2-3.5 4.7-8.1 9-12.3 13a123 123 0 0 0-21.2 31.6c-1.4-.5-1.5-.4-2.4-1.6.3-6.5-1.2-24.8.8-30l.4-10.7c.5-5.4 2.9-8 3-12.5"/><path fill="#d5b186" d="M821 516c9.1-2.8 17.3-10.8 23-10.8-3.6 4.7-8.2 9-12.4 13a123 123 0 0 0-21.2 31.6c-1.4-.5-1.5-.4-2.4-1.6.3-6.5-1.2-24.8.8-30 1 6-1.3 7.5 1.8 15.3 0-1 2.2-2.3 3.4-5 1.7-4.2 4.6-8.6 7-12.4"/><path fill="#9e714a" d="M217 519.7c-.1 11.5-.6 44 5.8 52l1.5-.1c1.1-3-.9-37.6 1.4-43.6l1.3-.4c2.3 12.7 1.4 29.4 1.8 42.4.3 6.7 1.4 13.3 1.3 20-.6-1-2-11.6-2-13l-1-.4c-1.3 3.2-2 5.1-3.8 8.1l-.9-1q.9-3.7 1.3-7.4c-.4-1.2-.4-1.5-1.5-2.1-10.5-5.7-11.4-19.7-21.2-30.5-8.5-9.6-11-10.6-21-18.1-2.3-1.6-2.5-4.2-2.5-6.6 3.2-5 6.1-3.9 11.5-3.3 12.2 10.2 17.8 22 25.6 35.7 1.3-11.1 1.4-20.5 1.6-31.7zm614.6-1.4c5-2.4 14.5-5.6 18.2.5-.6 8.6-16 15.9-22.2 21.1-17.6 12.5-9.5 22.8-27.7 37.9l-1.7-1.6-1 .5c-.6 3.7-1.6 11.7-2.7 14.9.5-8.2 1-20 2.4-27.8.2 4.7-.4 6.6 2 10.4l2 .1c5.5-5.4 6.6-18.8 7.1-26.1.9 1.2 1 1 2.4 1.6 7-13 11.2-20.9 21.2-31.5"/><path fill="#906836" d="M796 499.9c3.3 1.3 11.9 4.5 13.2 7.6l-.4 10.7c-2 5.2-.5 23.5-.7 30-.6 7.3-1.7 20.7-7.3 26.1l-2-.1c-2.3-3.8-1.7-5.7-2-10.4 1.4-8.6.9-15.5 1.8-23.7.8-7.3 2.6-16.2 3.8-23.6-1.5-3.3-4.4-2.1-4.9-3-1.3-2.6-1.8-4-4.2-6.6 1.8-3 2-3.9 2.7-7M215.2 506c4-.7 3.8-5 13.8-6-.8 5.7 4 6 5.7 14-1.3-2-3.2-5-5.8-5 0 1.8.6 2.4 1.6 3.9-2.9 1.7-5.6-.5-8.5 1.7.6 3.3.8 2-1.2 5.3-1.7-.2-1.7-.2-3.2-1l-.7.8h-.7c-.1-2.4-.6-5.3-1-7.7z"/><path fill="url(#p)" d="M665.2 416.7c20.3-10 54.7 4.8 74.5 11 5.6 6.5 15.7 12.7 23 20.9 4.8 5.5 10.2 15.1 12.8 17.9 8.1.6 12.3 1 20.2 2.7q.5-10.4.4-20.7c1.8 12 3.7 13.3 11 23.1.2 7.7.2 13-.4 20.6-4 1.7-9.4 3.3-10.7 7.7-22-2-8.5 17.3-14.7 27.8-.5 5.5-1.3 9.4-2.4 14.7-4 11.7-7.1 22.2-14.7 32-1.4 2-9.8 13-10.1 14l-5.1 4.8-1.2-1.7c-1.4 1-3.4 2.8-4.9 3.2l-2.9.2c-2 2-3.7 3.2-6.3 1.5.7-1.7 3.9-3.3 5.6-4.3v-2c-5.6 2.9-10.2 8-15.7 10.8a126 126 0 0 1-63.4 16.3c-48.3-10.7-74-23.6-91.5-72.7-7.3-10.3-5.4-37.8-4-49.6 7-22.1 6.3-26.4 23.9-45.4 0-1.7.9-4 1.4-5.8 18.2-10.6 21.4-14.7 42.5-20.5 11-4.1 22.2-2.5 32.7-6.5"/><path fill="url(#q)" d="M728.1 516.6c3.2-.2 8.6-.2 10.8-2 3.5 10 9.4 17.7 13.4 27.5 3.1 6 6 14.6 8.6 18.5a113 113 0 0 1-21.5 29.5c-5.7 2.9-10.3 8-15.8 10.8a126 126 0 0 1-63.4 16.3c-48.3-10.7-74-23.6-91.5-72.7l1.4-.2c3.2 4.1 2.9 12.7 7.7 13.7a25 25 0 0 0 2.7-6.6c-.2-4-.4-8.7 2.3-11.8 4.8-2.3 5.5-1 10.4-1.7h.7c5.3-1 12 2.9 15.7 6.4l5.8-.9c3.5 4.3 11 4.5 16.3 5 8.8 1 28.7 1.4 37.2-.3 2.3-.4 5.7-1.3 8-1.8 2-.6 9-1.7 10-2.2 8-4 19.2-9.3 26.1-14.8 3.2-2.6 4.8-5.9 8.6-8.7 3.7-.6 3.2-1 6.5-4"/><path fill="#cfcac3" d="M593.9 537.8c5.3-.8 12 3 15.7 6.5h-.4c-10.2-.4-16.7-6.3-23.2-2-2.4 1.7-3.6 6.5-5.5 9.1-.2-4-.4-8.7 2.3-11.8 4.8-2.3 5.5-1 10.4-1.7z"/><path fill="url(#r)" d="M616 482.4c4-4 38.7-9.6 44.6-6.3 11.4 9 23.2 15 24.5 31.1.7 9.2 1 24.6-6.2 31.2-3.6 3.8-6 6.2-10 9.7-8.5 1.7-28.4 1.2-37.2.3-5.4-.5-12.8-.7-16.3-5l-5.8 1c-3.7-3.6-10.4-7.4-15.7-6.6-7 0-6.3-4.9-13-2-2.1-.4-1.3 0-3-1.7l3.7-2.3c1.8-3.1 1.2-2.5 1-6.5a70 70 0 0 1 22.3-35l5.9 2.1c2-2.3 5.2-6.8 5.2-10"/><path fill="url(#s)" d="M627.1 503.8a9.6 9.6 0 1 1 13.6-13.5c19.7-5.3 31.2 5.9 34.5 24.6l2.1-.4c2.1 1.9 5.7.7 6 6 .2 6-3.4 12.5-4.4 17.9-3.6 3.8-6 6.2-10 9.7-8.5 1.7-28.4 1.2-37.2.3l4-.7c3.7-4.9-.4-5.8.6-9.1-7.7-6.3-16-14-14.3-25.6.6-3.4 2.1-7 5.1-9.2"/><path fill="url(#t)" d="m675.2 514.9 2.1-.4c2.1 1.9 5.7.7 6 6 .2 6-3.4 12.5-4.4 17.9-3.6 3.8-6 6.2-10 9.7-8.5 1.7-28.4 1.2-37.2.3l4-.7c3.7-4.9-.4-5.8.6-9.1a54 54 0 0 0 8 1.9c17.4 2.7 28.6-9.4 31-25.6"/><path fill="#dfdcdc" d="M627.1 503.8a9.6 9.6 0 1 1 12.2-15 9.6 9.6 0 0 1-12.2 15m-22.2-13.5 5.9 2.1c-9.8 19.5-6.3 33.5 4.6 51l-5.8 1c-3.7-3.6-10.4-7.4-15.7-6.6-7 0-6.3-4.9-13-2-2.1-.4-1.3 0-3-1.7l3.7-2.3c1.8-3.1 1.2-2.5 1-6.5a70 70 0 0 1 22.3-35"/><path fill="url(#u)" d="M665.2 416.7c20.3-10 54.7 4.8 74.5 11 5.6 6.5 15.7 12.7 23 20.9 4.8 5.5 10.2 15.1 12.8 17.9 8.1.6 12.3 1 20.2 2.7q.5-10.4.4-20.7c1.8 12 3.7 13.3 11 23.1.2 7.7.2 13-.4 20.6-4 1.7-9.4 3.3-10.7 7.7-22-2-8.5 17.3-14.7 27.8-.5 5.5-1.3 9.4-2.4 14.7-4 11.7-7.1 22.2-14.7 32-1.4 2-9.8 13-10.1 14l-5.1 4.8-1.2-1.7c-1.4 1-3.4 2.8-4.9 3.2l-2.9.2c-2 2-3.7 3.2-6.3 1.5.7-1.7 3.9-3.3 5.6-4.3v-2a113 113 0 0 0 21.6-29.5c-2.5-4-5.5-12.5-8.6-18.5 5-15.1 11.5-4.6 18.5-8.1 1.1-13.5 1.8-32.4-.5-45.7-10.5-61.6-82.7-71-133.7-62.6l-4.1-2.5c11-4.1 22.2-2.5 32.7-6.5"/><path fill="#c8a084" d="M752.3 542.1c5-15.1 11.5-4.6 18.5-8.1-1.4 6.5-6 21.6-9.9 26.6-2.5-4-5.5-12.5-8.6-18.5"/><path fill="#7b6b62" d="M747.8 591.5a144 144 0 0 0 24-39.6c2.2-5.9 6.1-19.6 9.5-24.2-.5 5.5-1.3 9.4-2.4 14.7-4 11.7-7.1 22.2-14.7 32-1.4 2-9.8 13-10.1 14l-5.1 4.8z"/><path fill="#dfdcdc" d="M660.6 476.1c3.4-.4 8.5-1.5 11.5.5 19.1 5.7 46.8 22.3 49.5 44-3.8 2.8-5.4 6-8.6 8.7-7 5.5-18 10.8-26.1 14.8-1 .5-8 1.6-10 2.2-2.3.5-5.7 1.5-8 1.8 4-3.5 6.4-5.9 10-9.7 7.2-6.6 6.9-22 6.2-31.2-1.3-16.2-13.1-22.1-24.5-31"/><path fill="#677a84" d="M660.6 476.1c3.4-.4 8.5-1.5 11.5.5l-.3 1.8c23 19.6 25.8 44 5.8 67.2l-.7.7c-2.3.5-5.7 1.5-8 1.8 4-3.5 6.4-5.9 10-9.7 7.2-6.6 6.9-22 6.2-31.2-1.3-16.2-13.1-22.1-24.5-31"/><path fill="#4b413b" d="M582.7 525.3c-4.6-7 8-25.7 12.6-31.7 11.9-15.6 28.4-21.7 46.6-25.4 29.3-5.8 82.5 14.5 86.2 48.4-3.3 3-2.8 3.4-6.5 4-2.7-21.7-30.4-38.3-49.5-44-3-2-8-1-11.5-.5-6-3.3-40.7 2.3-44.6 6.3 0 3.2-3.1 7.7-5.2 10l-6-2.1a70 70 0 0 0-22.1 35"/><path fill="#cfcac3" d="M616 482.4c0 3.2-3.1 7.7-5.2 10l-6-2.1c4.1-3.5 6.7-5.1 11.2-8"/><path fill="#4b413b" d="M590 443.7c18.2-10.6 21.4-14.7 42.5-20.5l4.1 2.5c-16 4-36.3 11.8-48 23.8 0-1.7.9-4 1.4-5.8"/><path fill="url(#v)" d="M284.3 427.4c4.9-.5 12.6-4.2 18-5.8 14.7-4.3 42.8-12.2 57.3-4.9 7.2 2.2 12.8 2.9 20.2 4l-3.1 3.2c16.6 1.8 38.1 9.3 51.4 19.4 20.5 17.7 29.4 33 32 60.7.9 9.8 1 33.3-4.6 41.7-11.7 29.8-25.6 48.4-56 62a123 123 0 0 1-48 10.1 158 158 0 0 1-49.6-16.5c-3.5-1.2-11.8-7.7-16.2-10.2l.2 1.7c4.4 3.3 9.3 7 14 9.9l-.2 1.2c-6 0-10.5-5-15.7-9l-1 1.2c-8.5-3.4-25.5-28.3-27.2-38a8 8 0 0 0-3.5-5c0 4.5 5.6 12.2 5.2 15.8-2.4-2.2-4.3-9-6.1-12.6l-1.3 1.6c-2.8-5.7-4.7-16-6.2-22.4-1.2-6-3.6-32.2-5-34.9-3-1.4-6.5-.8-10-.6-9.9 1-9.7 5.3-13.7 6l-3.3-11.4c1.2-3-1-8.6-1.8-12.6.9 1 3 4.2 4 5.4 1-.7 1-8.3 2.3-13.1a214 214 0 0 1 10.6-17.6c-.4 9.4 2.2 14.8 13.8 12.2 10.2-2.3 13.6-9.8 18.4-18.2 6-7 22.8-19.1 25-23.3"/><path fill="#f2dbc4" d="M397.5 531c5.4 2 7.4 2.5 8.5 8.7-2 2-5.9 5.1-6 7.4l.9.8c2.9-1.3 5.2-3.5 7.6-5.5 9.6.5 18.5-3.7 27.3-7.2 2 .3 5.3.6 7.2 1.3l.8 1.2-.3.2a11 11 0 0 0-5.4-.3c-3.3 2.4-2.5 1.1-3.4 4.8a31 31 0 0 0 13.2 17c2.7-4.5 4.6-13 7-14.7l.6 1c-11.7 29.8-25.6 48.4-56 62a123 123 0 0 1-48 10.1 158 158 0 0 1-49.6-16.5l.2-1.5 2 1.1c1-7.4-7.1-6 1.7-19.8 9.6-15.2 3.6-15.4 21.6-19.7 1.9-5 3.8-14.9 3.6-20.1-6.1-2.2-9.1-3.1-14.8-6.6l.5-1.4c7 3 17.9 9.3 25 7.6l5.2 5.2q13 3 26.2 3c1-4.3 3-6 6.4-8.3l2.9-.1c7-2.3 9.8-4.5 15-9.7"/><path fill="#acc4c9" d="M397.5 531c5.4 2 7.4 2.5 8.5 8.7-2 2-5.9 5.1-6 7.4l.9.8c-6 .6-11 1.2-17 1.2-.2-2.2-1-6-1.5-8.4 7-2.3 9.8-4.5 15-9.7"/><path fill="#95adb8" d="m379.5 540.8 2.9-.1c.4 2.3 1.3 6.2 1.5 8.4-3.1.2-7.5 0-10.8 0 1-4.3 3-6 6.4-8.3"/><path fill="url(#w)" d="M284.3 427.4c4.9-.5 12.6-4.2 18-5.8 14.7-4.3 42.8-12.2 57.3-4.9 7.2 2.2 12.8 2.9 20.2 4l-3.1 3.2c-35.8-1.3-71.6-1.5-101 24.3-27.7 24.2-27 64.7-19.2 98 .8 3.6 10.3 12.1 9.5 19 .2 4.1 11 17.2 14.7 21l5 4.9.2 1.7c4.4 3.3 9.3 7 14 9.9l-.2 1.2c-6 0-10.5-5-15.7-9l-1 1.2c-8.5-3.4-25.5-28.3-27.2-38a8 8 0 0 0-3.5-5c0 4.5 5.6 12.2 5.2 15.8-2.4-2.2-4.3-9-6.1-12.6l-1.3 1.6c-2.8-5.7-4.7-16-6.2-22.4-1.2-6-3.6-32.2-5-34.9-3-1.4-6.5-.8-10-.6-9.9 1-9.7 5.3-13.7 6l-3.3-11.4c1.2-3-1-8.6-1.8-12.6.9 1 3 4.2 4 5.4 1-.7 1-8.3 2.3-13.1a214 214 0 0 1 10.6-17.6c-.4 9.4 2.2 14.8 13.8 12.2 10.2-2.3 13.6-9.8 18.4-18.2 6-7 22.8-19.1 25-23.3"/><path fill="#7d523c" d="M210.1 482c.9 1 3 4.2 4 5.4 1-.7 1-8.3 2.3-13.1 1.3 30 7.5 13.7 13 23.9l-.4 1.8c-10 1-9.8 5.3-13.8 6l-3.3-11.4c1.2-3-1-8.6-1.8-12.6"/><path fill="url(#x)" d="M352.3 493a9.6 9.6 0 0 1 17.4-1c7.3-11.8 41.2 6.7 32.2 31.8l-4.4 7.2c-5.3 5.2-8 7.4-15.1 9.7l-2.9.1c-3.4 2.4-5.5 4-6.4 8.4q-13.2 0-26.2-3c2-1 1.2-.4 2.6-2.2-.8-5.3-7-14.9-9.2-20-1.1-2.8-2.1-7.5-2.8-10.4 1.5-5.6 3.6-13.8 6.9-18.4 3-1.7 4.4-1.7 7.9-2.1"/><path fill="url(#y)" d="M344.4 495.2c3-1.7 4.4-1.7 7.9-2.1a10 10 0 0 0 2.8 10.7c-14.8 11.1 2.2 38.2 24.4 37-3.4 2.4-5.5 4-6.4 8.4q-13.2 0-26.2-3c2-1 1.2-.4 2.6-2.2-.8-5.3-7-14.9-9.2-20-1.1-2.8-2.1-7.5-2.8-10.4 1.5-5.6 3.6-13.8 6.9-18.4"/><path fill="#dfdcdc" d="M352.3 493a9.6 9.6 0 1 1 17.9 6.9 9.6 9.6 0 0 1-18-6.8"/><path fill="#dfdcdc" d="m351.1 476.5 1.1 1c-2.9 3-7.8 7.3-9.6 10.6.7 2 1.7 5 1.8 7-3.3 4.7-5.4 13-6.9 18.5.7 3 1.7 7.6 2.8 10.3 2.1 5.2 8.4 14.8 9.2 20-1.4 2-.5 1.2-2.6 2.2l-5.2-5.2c-7.1 1.7-18-4.5-25-7.5-8.1-7-13.5-5.5-13-18.3 10.1-20.7 26.4-31 47.4-38.6"/><path fill="url(#z)" d="M342.6 488.1c.7 2 1.7 5 1.8 7-3.3 4.7-5.4 13-6.9 18.5.7 3 1.7 7.6 2.8 10.3 2.1 5.2 8.4 14.8 9.2 20-1.4 2-.5 1.2-2.6 2.2l-5.2-5.2c-10.5-18-11.7-35.5 1-52.8"/><path fill="url(#A)" d="M351.1 476.5c6-2.4 34.8-1.8 41.8 1.6 3.8 2 3.6 4.7 8.4 5.2 4.2-3.4 4.2-3.1 9 .2l-1.7 2c-1.3 1.5-1.6 1.8-2.5 3.6 3.5 12.8 9.8 24 6 38.4-1.7 5.2-2.5 7.9-6.1 12.2-1.1-6.2-3-6.6-8.5-8.7l4.4-7.2c9-25-25-43.6-32.1-31.7a9.6 9.6 0 0 0-17.5 1c-3.5.4-4.8.4-8 2 0-2-1-5-1.7-7 1.8-3.3 6.7-7.6 9.6-10.5z"/><path fill="#95adb8" d="M402 523.8c2.2-2.2 3-3.3 6.3-3.8 4 1.8 3.6 3.4 3.8 7.5-1.7 5.2-2.5 7.9-6.1 12.2-1.1-6.2-3-6.6-8.5-8.7z"/><path fill="#dfdcdc" d="M410.2 483.5A67 67 0 0 1 441 524c-.5 5.2-1.7 7-5.1 11.2-8.8 3.5-17.7 7.7-27.3 7.2-2.4 2-4.7 4.2-7.6 5.5l-1-.8c.2-2.3 4-5.4 6-7.4 3.7-4.3 4.5-7 6.2-12.2 3.8-14.4-2.5-25.6-6-38.4.9-1.8 1.2-2.1 2.5-3.7z"/><path fill="#677a84" d="M412 527.5c3.9-14.4-2.4-25.6-6-38.4 1-1.8 1.3-2.1 2.6-3.7 13.4 19.7 15.1 37.4 0 57-2.5 2-4.8 4.2-7.7 5.5l-1-.8c.2-2.3 4-5.4 6-7.4 3.7-4.3 4.5-7 6.2-12.2"/><path fill="url(#B)" d="m303.7 515.1-1.2 4.1-1.7.7c-6.6-4.8.3-17 3.9-21.9 24.4-33.3 79.9-40.4 112.7-16 9.9 7.3 24.4 27.4 26.2 39.6l-.7 2-2 .4c-6-19-14-29.7-30.7-40.5-4.7-3.3-4.7-3.6-9-.2-4.7-.5-4.5-3.2-8.3-5.2-7-3.4-35.7-4-41.8-1.6-21 7.7-37.3 17.9-47.4 38.6"/><path fill="#c8a084" d="M587.8 426.7c6.7-1.3 19.4-.8 26.3-2.2 19.3-4 30.5-11.3 51-7.8-10.4 4-21.5 2.4-32.6 6.5-21.1 5.8-24.3 10-42.5 20.5-.5 1.8-1.4 4-1.4 5.8-17.6 19-17 23.3-24 45.4-2.1-3.4-4.5-8.3-7.9-9.1l-1.9 2.2c.1 10-2.8 18-2.1 29l-6.4-3c-6.2-10.7-35.4-24.3-47.1-17-23.4 14.4-22.1 21.6-24 46.3-4.8 30-25.3 65-51.2 81.8-38.8 28-122 31-155-8.4-6.3-7.5-10.2-26.6-11-36.8 1.1-1.2 1.2-4.1 1.5-6 0 0-7.8-11.9-9.4-16l1.3-1.6c1.8 3.7 3.7 10.4 6 12.6.5-3.6-5-11.3-5-15.8 1.6.9 3.1 3.1 3.4 5 1.7 9.7 18.7 34.6 27.2 38l1-1.2c5.2 4 9.7 9 15.7 9l.2-1.2c-4.7-2.8-9.6-6.6-14-9.9l-.2-1.7c4.4 2.5 12.7 9 16.2 10.2 13.5 8 34 14 49.5 16.5a123 123 0 0 0 48.2-10.1c30.3-13.6 44.2-32.2 56-62 5.5-8.4 5.4-32 4.5-41.7-2.6-27.8-11.5-43-32-60.7l2.7-1.2c2.6-3.4 1.8-3.7 1.2-7.6a107 107 0 0 1 25 26.1c2.2 3.2 7.2 10.4 10.9 11.5 9.9-2 15.4-5.9 26.9-7.9a54 54 0 0 1 34 0c6 1.3 17.4 3.2 22.3 6.5 6.6-2.6 6.7 1.4 11.1-6 6.6-10.8 14.6-21 24.5-29 3.3-2.6 10.7-5 12.8-7.7l-2.5-.7c-4.2 1.5-5.4 1.9-9.2-.6"/><path fill="#7b6b62" d="M587.8 426.7c6.7-1.3 19.4-.8 26.3-2.2 19.3-4 30.5-11.3 51-7.8-10.4 4-21.5 2.4-32.6 6.5-21.1 5.8-24.3 10-42.5 20.5-.5 1.8-1.4 4-1.4 5.8-17.6 19-17 23.3-24 45.4-2.1-3.4-4.5-8.3-7.9-9.1l-1.9 2.2q-4-3.5-8.4-6.7c-9.3 7.3-35-1-47.5 1.4-5.4 1-21.2 5.7-25.4 3.5l-.4-1.5c-3.2 2.3-2.3 1.1-3.8 4.4 4.9 33.3-1.6 64.6-22 92q-6.6 9-14.6 16.8c-40.3 32.5-87.6 35.8-133.7 13.6-19-12.9-28-17.8-39.5-37.6 0 0-7.8-11.9-9.4-16l1.3-1.6c1.8 3.7 3.7 10.4 6 12.6.5-3.6-5-11.3-5-15.8 1.6.9 3.1 3.1 3.4 5 1.7 9.7 18.7 34.6 27.2 38l1-1.2c5.2 4 9.7 9 15.7 9l.2-1.2c-4.7-2.8-9.6-6.6-14-9.9l-.2-1.7c4.4 2.5 12.7 9 16.2 10.2 13.5 8 34 14 49.5 16.5a123 123 0 0 0 48.2-10.1c30.3-13.6 44.2-32.2 56-62 5.5-8.4 5.4-32 4.5-41.7-2.6-27.8-11.5-43-32-60.7l2.7-1.2c2.6-3.4 1.8-3.7 1.2-7.6a107 107 0 0 1 25 26.1c2.2 3.2 7.2 10.4 10.9 11.5 9.9-2 15.4-5.9 26.9-7.9a54 54 0 0 1 34 0c6 1.3 17.4 3.2 22.3 6.5 6.6-2.6 6.7 1.4 11.1-6 6.6-10.8 14.6-21 24.5-29 3.3-2.6 10.7-5 12.8-7.7l-2.5-.7c-4.2 1.5-5.4 1.9-9.2-.6"/><path fill="#a29a91" d="M587.8 426.7c6.7-1.3 19.4-.8 26.3-2.2 19.3-4 30.5-11.3 51-7.8-10.4 4-21.5 2.4-32.6 6.5-21.1 5.8-24.3 10-42.5 20.5-5.2 1.6-5.7 5.8-9.4 6.7.3-5 5.2-8.2 9.3-11.9l-.6-.4c-11.4 3.5-22.8 26.8-30.3 35-.6.7-6.5-1.8-8-2.4 6.7-2.6 6.8 1.4 11.2-6 6.6-10.8 14.6-21 24.5-29 3.3-2.6 10.7-5 12.8-7.7l-2.5-.7c-4.2 1.5-5.4 1.9-9.2-.6"/><path fill="#e1bfa4" d="M473.1 484.7c18.6-14.2 53-13.7 73.3-3.4-9.3 7.3-35-1-47.5 1.4-5.4 1-21.2 5.7-25.4 3.5z"/><path fill="#a29a91" d="M285.7 591c4.4 2.6 12.7 9.1 16.2 10.3 13.5 8 34 14 49.5 16.5-2.5.4-9 1.7-11 1.7-21.4 0-41.7-10.2-57.4-23.4l1-1.2c5.2 4 9.7 9 15.7 9l.2-1.2c-4.7-2.8-9.6-6.6-14-9.9zm209.1-126.8a54 54 0 0 1 34 0c-.5 1-1.1 2.7-1.9 2.9a53 53 0 0 1-32.1-2.9"/><path fill="#d5b186" d="m432.7 597.9 1.7 2.4c-4.7 7.3-20.5 17-28.3 21a123 123 0 0 1-107.2-1.8 73 73 0 0 1-18.6-18.5c4.4 2.9 14.5 11 18.7 10.5 46.1 22.2 93.4 19 133.7-13.6"/><path fill="#c8a084" d="m554.8 488 1.9-2.2c3.4.8 5.8 5.7 8 9-1.4 12-3.3 39.4 4 49.7 17.5 49 43.2 62 91.5 72.7 22.8.6 43.2-5.7 63.4-16.3 5.5-2.9 10-8 15.8-10.8l-.1 2c-1.7 1-5 2.6-5.6 4.3 2.6 1.7 4.2.4 6.3-1.5l3-.2c1.4-.4 3.4-2.2 4.8-3.2l1.2 1.6 5-4.8 2.4-.2c5.4-5.2 3.8-4.3 8-9.8 1 2-1 15.1-1.3 18.4 2.3-2.6 1.8-9.5 3.7-14l.1 5.5c-4 34.4-20.1 47-52.5 54.7a158 158 0 0 1-57 3 121 121 0 0 1-85-51.3l.5-1-2.6-4.3c-6.7-11.1-17.1-29-13.7-42.4 1.8 1.4 2.5 2.6 3.8 4.5q-4.5-17.1-7.7-34.4c-.7-11 2.2-19 2.1-29"/><path fill="url(#C)" d="m554.8 488 1.9-2.2c3.4.8 5.8 5.7 8 9-1.4 12-3.3 39.4 4 49.7 17.5 49 43.2 62 91.5 72.7 22.8.6 43.2-5.7 63.4-16.3 5.5-2.9 10-8 15.8-10.8l-.1 2c-1.7 1-5 2.6-5.6 4.3 2.6 1.7 4.2.4 6.3-1.5l3-.2c1.4-.4 3.4-2.2 4.8-3.2l1.2 1.6a148 148 0 0 1-26.7 19c-48.8 26.3-116.5 13-147.8-34-5.7-8.4-9.4-17.7-14.1-26.7q-4.5-17.1-7.7-34.4c-.7-11 2.2-19 2.1-29"/><path fill="#a29a91" d="m739.4 590-.1 2c-1.7 1.1-5 2.7-5.6 4.4 2.6 1.7 4.2.4 6.3-1.5l3-.2c-15.6 14-40.2 26-61.5 24.7-4.3-.3-18-1.1-21.3-2.2 22.8.6 43.2-5.7 63.4-16.3 5.5-2.9 10-8 15.8-10.8"/><path fill="#d0a98c" d="m546.3 514 6.4 3q3.3 17.3 7.7 34.4c-1.3-1.9-2-3.1-3.8-4.5-3.4 13.4 7 31.3 13.7 42.4l2.6 4.3-.5 1c-1.3-1.2-4.5-6.9-5.6-8.5-14.3-21.8-15.8-46.7-20.5-72.1"/><path fill="url(#D)" d="M619 718.4c3 .4 7.2 1.4 10 1.5 3.8-1.2 2.2-1.2 6 .3l-7.2 5.9c-.3 10.4-23.2 33-31.1 42.5-10.2 12.3-23.4 12.1-38 13.3-18.8 9.5-58.4 8.4-79 4.6-3.8-.7-29.8-7.3-31.5-7 1.1 2.6 6 2 9 8.3l-1.5.1c-4.2-3.3-14-8.1-16.2-11.2-12-3.3-42.4-38.5-44.7-50.6a23 23 0 0 1-5.4-6.2l.8-1 3.6.8c13.1-.8 22.3 4 34 4 28.6 0 56.1 1.6 84.5 4.3 8.6.9 26.8-2.7 36.4-3.2 21.3-1.2 50.6 1.8 70.3-6.4"/><path fill="#b08468" d="M619 718.4c3 .4 7.2 1.4 10 1.5-8 3.7-12.7 6.2-21.2 8.4-4.6.7-7.9 1.2-12.1 3.2v1.2a88 88 0 0 1-28.1 8c-3 .5-25.4 3.8-27.2 4.3-25 1.4-37.4 2-63.2-1.3-5.8 11.3-21.6.3-26.8 7.7l-.2 1.9c-13.8-1.7-17.3-3.7-19.7-16.7l-.2.5a12 12 0 0 0-1.6 4.4c-2.6 1-3.7-1.2-8.3.2-4.2-4.7-4.3-6-3.5-12.1l-9.8-3.3c-1.9 1.1-4.7 2.7-6.1 4.2l-6.2-4.4a23 23 0 0 1-5.4-6.2l.8-1 3.6.8c13.1-.8 22.3 4 34 4 28.6 0 56.1 1.6 84.5 4.3 8.6.9 26.8-2.7 36.4-3.2 21.3-1.2 50.6 1.8 70.3-6.4"/><path fill="#7d523c" d="M595.7 731.5v1.2a88 88 0 0 1-28.1 8c-3 .5-25.4 3.8-27.2 4.3-25 1.4-37.4 2-63.2-1.3-5.8 11.3-21.6.3-26.8 7.7l-.2 1.9c-13.8-1.7-17.3-3.7-19.7-16.7l6-1-4.2-3.5c40.9 6.9 80.6 11.4 122.1 5.9q20.6-3 41.3-6.5"/><path fill="#7f7872" d="M436.4 735.7c9.3 2.6 35.7 5.7 40.8 8-5.8 11.3-21.6.3-26.8 7.7l-.2 1.9c-13.8-1.7-17.3-3.7-19.7-16.7z"/><path fill="#4b413b" d="M416.9 729.6c5.7.7 9.6 1.2 15.4 2.5l4.1 3.6-5.9 1-.2.4a12 12 0 0 0-1.6 4.4c-2.6 1-3.7-1.2-8.3.2-4.2-4.7-4.3-6-3.5-12.1"/><path fill="#44170d" d="M394.8 726.1a23 23 0 0 1-5.4-6.2l.8-1 3.6.8c3 1.3 11.1 4.6 13.3 6.6-1.9 1.1-4.7 2.7-6.1 4.2z"/><path fill="#cfcac3" d="M420.4 741.7c4.6-1.4 5.7.8 8.3-.2.5-2.1.6-2.5 1.6-4.4l.2-.5c2.4 13 6 15 19.7 16.7l.2-1.9c5.2-7.4 21 3.6 26.8-7.7 25.8 3.3 38.3 2.7 63.2 1.3a73 73 0 0 1 28.3 4.9c1.7 1.7 1.9 2 2.3 4.3-8.3 1.6-15.8 2.8-24.3 2.7l-.4.2 2.5 2.7.3 1c-13.7.2-25.4 2.6-41.1 2-13.6-.4-26.5-2.8-39-3h-.8c-15.6 2.2-39-8-51.4-17.4z"/><path fill="#a29a91" d="M477.2 743.7c25.8 3.3 38.3 2.7 63.2 1.3a73 73 0 0 1 28.3 4.9c1.7 1.7 1.9 2 2.3 4.3-8.3 1.6-15.8 2.8-24.3 2.7 2.3-.8 2.4-.8 4.2-2.4l-.2-1.4c-3.7-2.6-91.2-2.5-96.3-.7 3.2 1.9 7.4.7 11.3 3-4.6 1-10.7-1-15.5-2.1l.2-1.9c5.2-7.4 21 3.6 26.8-7.7"/><path fill="#7b6b62" d="M420.4 741.7c4.6-1.4 5.7.8 8.3-.2.5-2.1.6-2.5 1.6-4.4l.2-.5c2.4 13 6 15 19.7 16.7 4.8 1.2 10.9 3.2 15.5 2.2 40.2 6 41.3 6.3 80.6 1.6l2.5 2.7.3 1c-13.7.2-25.4 2.6-41.1 2-13.6-.4-26.5-2.8-39-3h-.8c-15.6 2.2-39-8-51.4-17.4z"/><path fill="url(#E)" d="M595.7 731.5c4.2-2 7.5-2.5 12.1-3.2.1 3.2 0 10 1.2 12.5-19.7 14-36 20-60.2 19l-2.5-2.7.4-.2c8.5.1 16-1.1 24.3-2.7-.4-2.3-.6-2.6-2.3-4.3a73 73 0 0 0-28.3-4.9 946 946 0 0 1 27.2-4.2c10-1.8 19-3.3 28-8z"/><path fill="#7f7872" d="M567.6 740.8c4.8.2 11.5-.6 14.8 1.5 2 2.6 2 3.3 2.3 6.4l6-2.5c-1.6 3.6-16 8.1-19.7 8-.4-2.3-.6-2.6-2.3-4.3a73 73 0 0 0-28.3-4.9 946 946 0 0 1 27.2-4.2"/><path fill="#b08468" d="M469 759.7c12.5.3 25.4 2.7 39 3.2 15.7.5 27.4-1.9 41-2l2.8 2.2c2.7.7 3.2.3 4.8 2.1-10.5 7.9-81.8 8.1-90.5-.5 1.4-2.3 1-1.6 4-3z"/><path fill="#cfcac3" d="M469 759.7c12.5.3 25.4 2.7 39 3.2 15.7.5 27.4-1.9 41-2l2.8 2.2c-16 6.4-65.5 5.7-81.7-1.3z"/><path fill="#c8a084" d="M439.5 776.7c-3.4-3-6.6-5.2-7.6-9.5l.7 1 1.3-1.3c34 20.8 56.9 23 97.7 19.7 7.5-.6 22.2-4.5 27-4.7-18.7 9.5-58.3 8.4-79 4.6-3.7-.7-29.7-7.3-31.4-7 1.1 2.6 6 2 9 8.3l-1.5.1c-4.2-3.3-14-8.1-16.2-11.2"/><path fill="#341810" d="M629 720c3.8-1.3 2.2-1.3 6 .2l-7.2 5.9c-5.1 4-13.6 11.2-18.8 14.7-1.3-2.5-1-9.3-1.2-12.5 8.5-2.2 13.2-4.7 21.2-8.4m-222 6.4 9.9 3.3c-.8 6.2-.7 7.4 3.5 12.1l-3.6.7c-5-3.5-10.9-8.2-15.8-12 1.4-1.4 4.2-3 6-4.1"/><path fill="url(#F)" d="M453.9 632.2a45 45 0 0 1 10.6-20.7l.4.6q-3 6.8-5.7 13.8l.6 1.1c9.3-6.4 7.2-14.5 10-16 3.6 5.8-8 38.8 3.5 43.7 22.7 9.7 61 13.7 80.8-3.9 0 0 4.7 2.3 7.5 1.7 0-6.7.6-19.9-2.3-25.6-.8-1.7-1-1.3-.7-3.3l1.6.3c3.5 3.3 4.2 2.9 4.6 6.6l1.6-1.2v-4.6c2.6 3.3 5.8 12.7 7.5 17.1l-.6 1.4c.2 14.5-1.5 25.7-15 34.4l-3 2.7a117 117 0 0 1-33.7 20.8c-5.6.3-12.7-.5-18.4-1-6.3-2.1-16.7-7-21.4-11.6-2.2-.5-11.1-7.3-13.4-9-20.6-13.4-20-25.8-14.5-47.3"/><path fill="#d0a98c" d="M453.9 632.2a45 45 0 0 1 10.6-20.7l.4.6q-3 6.8-5.7 13.8l.6 1.1c9.3-6.4 7.2-14.5 10-16 3.6 5.8-8 38.8 3.5 43.7 22.7 9.7 61 13.7 80.8-3.9 0 0 4.7 2.3 7.5 1.7 0-6.7.6-19.9-2.3-25.6-.8-1.7-1-1.3-.7-3.3l1.6.3c3.5 3.3 4.2 2.9 4.6 6.6l1.6-1.2v-4.6c2.6 3.3 5.8 12.7 7.5 17.1l-.6 1.4c-5.5-.3-6.7 2.4-8.7 7l-3 7.1-.3.3a83 83 0 0 1-61.7 16.2c-11.5-1.8-35.4-10.2-39.4-22.6-1.1-3.5.9-17.7-1.7-21.4l-1.8-.1z"/><path fill="#c8a084" d="m564.8 630.5 1.6-1.2v-4.6c2.6 3.3 5.8 12.7 7.5 17.1l-.6 1.4c-5.5-.3-6.7 2.4-8.7 7 0-6.5-1.8-14 .2-19.7"/><path fill="#9e714a" d="M468.4 679.5c16.4-1.4 31 9.2 47.5 8 17.4-1.4 23.3-9.3 42.5-10l-3.2 2.8a115 115 0 0 1-33.6 20.8c-5.6.3-12.7-.5-18.4-1-6.3-2.1-16.7-7-21.4-11.6-2.2-.5-11.1-7.3-13.4-9"/><path fill="#b08468" d="M481.8 688.5c4.4 1 12.8 5.7 14.7 5.4-1-1.7-1.2-1.3-1-2.9 5.7.4 23-1.4 26-.9 17.8 3.2 17.7-6.8 33.7-9.8a115 115 0 0 1-33.6 20.8c-5.6.3-12.7-.5-18.4-1-6.3-2.1-16.7-7-21.4-11.6"/><path fill="#d5b186" d="M574 641.8c3.8 3.5 4.4 14.9 5 19.7 4.3 30.3-25.5 24.5-36 37.6-10.8 4.5-12.2.3-21.4 2a115 115 0 0 0 33.6-20.8l3.2-2.7c13.4-8.7 15.1-19.9 15-34.4z"/><path fill="#c8a084" d="M630.9 686.7c8.3 3.3 17.2 6.6 24.8 11.2 2.7 5 8.4 17 5 22.1-4.6 1-6.4-2.7-9.3-6-.4-2.3-8-11.7-9.8-15-3.5-5-6.5-8-10.7-12.3"/><path fill="#d0a98c" d="M641.6 699c1.8 3.3 9.4 12.7 9.8 15-5.5 3.6-10 4.8-16.5 6.2-3.7-1.5-2.1-1.5-6-.3-2.7-.1-6.9-1.1-10-1.5 7.7-8 20.1-9.4 22.7-19.3"/><path fill="#f2dbc4" d="m543 699.1 1.2 1.4c-4.2.8-5.5 2.7-9.1 3.6-4.5 1-10.1-.4-14.7 0-7.1 2-7.6 4.3-16.2 3.8a97 97 0 0 1-33.9-12.4c13.7 4.6 18.5 6.3 32.9 4.6 5.7.5 12.8 1.3 18.4 1 9.2-1.7 10.6 2.5 21.4-2"/></svg>